<svg width="20" height="20" viewBox="0 0 20 20" fill="none" xmlns="http://www.w3.org/2000/svg">
<g clip-path="url(#clip0_22_129)">
<path d="M18.125 0.468761H1.875C1.5063 0.465009 1.15117 0.607674 0.887529 0.865453C0.623892 1.12323 0.473283 1.47507 0.46875 1.84376V18.1594C0.474103 18.5275 0.625072 18.8786 0.88862 19.1357C1.15217 19.3928 1.50683 19.535 1.875 19.5313H18.125C18.4937 19.5342 18.8486 19.391 19.1121 19.1331C19.3756 18.8752 19.5263 18.5234 19.5312 18.1547V1.83907C19.5247 1.47146 19.3733 1.1213 19.1099 0.864708C18.8466 0.608112 18.4927 0.46582 18.125 0.468761Z" fill="#0076B2"/>
<path d="M3.29067 7.61407H6.12036V16.7188H3.29067V7.61407ZM4.7063 3.08282C5.03085 3.08282 5.34811 3.17909 5.61794 3.35943C5.88778 3.53977 6.09806 3.79609 6.22219 4.09597C6.34632 4.39585 6.37872 4.7258 6.31528 5.04409C6.25185 5.36239 6.09544 5.65472 5.86584 5.8841C5.63624 6.11348 5.34376 6.26961 5.02541 6.33274C4.70706 6.39587 4.37713 6.36316 4.07738 6.23874C3.77762 6.11433 3.5215 5.9038 3.34141 5.6338C3.16132 5.36379 3.06537 5.04644 3.06567 4.72189C3.06609 4.28704 3.23912 3.87014 3.54675 3.5628C3.85439 3.25546 4.27145 3.08282 4.7063 3.08282ZM7.89536 7.61407H10.6079V8.86407H10.6454C11.0235 8.14845 11.9454 7.39376 13.3219 7.39376C16.1875 7.38751 16.7188 9.27345 16.7188 11.7188V16.7188H13.8891V12.2891C13.8891 11.2344 13.8704 9.87657 12.4188 9.87657C10.9672 9.87657 10.7204 11.0266 10.7204 12.2203V16.7188H7.89536V7.61407Z" fill="white"/>
</g>
<defs>
<clipPath id="clip0_22_129">
<rect width="20" height="20" fill="white"/>
</clipPath>
</defs>
</svg>
